<svg xmlns="http://www.w3.org/2000/svg" viewBox="0 0 512 512">
  <rect width="512" height="512" rx="96" fill="#447144"/>
  <g transform="translate(256 268)">
    <path d="M0 -180C-110 -180 -180 -90 -180 0c0 100 80 180 180 180S180 100 180 0C180 -90 110 -180 0 -180Zm0 40c12 40 20 90 20 140 0 60-10 120-20 160-10-40-20-100-20-160 0-50 8-100 20-140Zm-65 22c-8 36-15 80-15 118 0 55 12 112 26 151-40-20-70-55-82-98-6-23-5-48 3-72 12-39 37-74 68-99Zm130 0c31 25 56 60 68 99 8 24 9 49 3 72-12 43-42 78-82 98 14-39 26-96 26-151 0-38-7-82-15-118Z" fill="#79c8a1"/>
  </g>
</svg>
