<svg xmlns="http://www.w3.org/2000/svg" viewBox="0 0 512 512">
  <rect width="512" height="512" rx="96" fill="#447144"/>
  <g fill="#79c8a1">
    <!-- Gaffel -->
    <rect x="168" y="116" width="14" height="96" rx="7"/>
    <rect x="193" y="116" width="14" height="96" rx="7"/>
    <rect x="218" y="116" width="14" height="96" rx="7"/>
    <path d="M162 205h76a8 8 0 0 1 8 8v22a40 40 0 0 1-31 39v107a15 15 0 0 1-30 0V274a40 40 0 0 1-31-39v-22a8 8 0 0 1 8-8z"/>
    <!-- Kniv -->
    <path d="M340 116v140h-34c0-44 0-96 18-124 4-7 10-12 16-16z"/>
    <rect x="311" y="250" width="29" height="146" rx="14"/>
  </g>
</svg>
